<svg width="268" height="56" viewBox="0 0 268 56" fill="none" xmlns="http://www.w3.org/2000/svg">
<circle cx="25.8517" cy="28.5" r="23" stroke="white" stroke-width="3"/>
<path d="M6.19496 36.2086L25.5138 6.73617L44.8326 36.2086H6.19496Z" stroke="white" stroke-width="3"/>
<path d="M45.1705 20.4534L25.8517 49.9259L6.53288 20.4534L45.1705 20.4534Z" stroke="white" stroke-width="3"/>
<rect x="17.3828" y="21.0448" width="15.9241" height="14.2345" stroke="white" stroke-width="3"/>
<path d="M71.6685 21.0264C71.6685 21.9932 71.3193 22.7549 70.6211 23.3115C69.9277 23.8682 68.9609 24.1465 67.7207 24.1465C66.5781 24.1465 65.5674 23.9316 64.6885 23.502V21.3926C65.4111 21.7148 66.0215 21.9419 66.5195 22.0737C67.0225 22.2056 67.4814 22.2715 67.8965 22.2715C68.3945 22.2715 68.7754 22.1763 69.0391 21.9858C69.3076 21.7954 69.4419 21.5122 69.4419 21.1362C69.4419 20.9263 69.3833 20.7407 69.2661 20.5796C69.1489 20.4136 68.9756 20.2549 68.7461 20.1035C68.5215 19.9521 68.0601 19.7104 67.3618 19.3784C66.7075 19.0708 66.2168 18.7754 65.8896 18.4922C65.5625 18.209 65.3013 17.8794 65.106 17.5034C64.9106 17.1274 64.813 16.688 64.813 16.1851C64.813 15.2378 65.1328 14.4932 65.7725 13.9512C66.417 13.4092 67.3057 13.1382 68.4385 13.1382C68.9951 13.1382 69.5249 13.2041 70.0278 13.3359C70.5356 13.4678 71.0654 13.6533 71.6172 13.8926L70.8848 15.6577C70.3135 15.4233 69.8398 15.2598 69.4639 15.167C69.0928 15.0742 68.7266 15.0278 68.3652 15.0278C67.9355 15.0278 67.606 15.1279 67.3765 15.3281C67.147 15.5283 67.0322 15.7896 67.0322 16.1118C67.0322 16.312 67.0786 16.4878 67.1714 16.6392C67.2642 16.7856 67.4106 16.9297 67.6108 17.0713C67.8159 17.208 68.2969 17.457 69.0537 17.8184C70.0547 18.2969 70.7407 18.7778 71.1118 19.2612C71.4829 19.7397 71.6685 20.3281 71.6685 21.0264Z" fill="white"/>
<path d="M76.6299 18.0454H77.3623C78.0801 18.0454 78.6099 17.9258 78.9517 17.6865C79.2935 17.4473 79.4644 17.0713 79.4644 16.5586C79.4644 16.0508 79.2886 15.6895 78.937 15.4746C78.5903 15.2598 78.0508 15.1523 77.3184 15.1523H76.6299V18.0454ZM76.6299 19.8911V24H74.3594V13.292H77.4795C78.9346 13.292 80.0112 13.5581 80.7095 14.0903C81.4077 14.6177 81.7568 15.4209 81.7568 16.5C81.7568 17.1299 81.5835 17.6914 81.2368 18.1846C80.8901 18.6729 80.3994 19.0562 79.7646 19.3345C81.376 21.7417 82.4258 23.2969 82.9141 24H80.3945L77.8384 19.8911H76.6299Z" fill="white"/>
<path d="M85.0117 24V13.292H87.2822V24H85.0117Z" fill="white"/>
<path d="M101.929 24L101.153 21.4512H97.249L96.4727 24H94.0264L97.8057 13.248H100.582L104.375 24H101.929ZM100.611 19.5469C99.8931 17.2373 99.4878 15.9312 99.395 15.6284C99.3071 15.3257 99.2437 15.0864 99.2046 14.9106C99.0435 15.5356 98.582 17.0811 97.8203 19.5469H100.611Z" fill="white"/>
<path d="M115.196 13.292V20.2207C115.196 21.0117 115.018 21.7051 114.662 22.3008C114.31 22.8965 113.8 23.353 113.131 23.6704C112.462 23.9878 111.671 24.1465 110.758 24.1465C109.381 24.1465 108.312 23.7949 107.55 23.0918C106.788 22.3838 106.407 21.417 106.407 20.1914V13.292H108.67V19.8472C108.67 20.6724 108.836 21.2778 109.168 21.6636C109.5 22.0493 110.05 22.2422 110.816 22.2422C111.559 22.2422 112.096 22.0493 112.428 21.6636C112.765 21.2729 112.933 20.6626 112.933 19.8325V13.292H115.196Z" fill="white"/>
<path d="M120.839 18.0454H121.571C122.289 18.0454 122.819 17.9258 123.161 17.6865C123.502 17.4473 123.673 17.0713 123.673 16.5586C123.673 16.0508 123.498 15.6895 123.146 15.4746C122.799 15.2598 122.26 15.1523 121.527 15.1523H120.839V18.0454ZM120.839 19.8911V24H118.568V13.292H121.688C123.144 13.292 124.22 13.5581 124.918 14.0903C125.617 14.6177 125.966 15.4209 125.966 16.5C125.966 17.1299 125.792 17.6914 125.446 18.1846C125.099 18.6729 124.608 19.0562 123.974 19.3345C125.585 21.7417 126.635 23.2969 127.123 24H124.604L122.047 19.8911H120.839Z" fill="white"/>
<path d="M138.94 18.6313C138.94 20.4038 138.5 21.7661 137.622 22.7183C136.743 23.6704 135.483 24.1465 133.842 24.1465C132.202 24.1465 130.942 23.6704 130.063 22.7183C129.184 21.7661 128.745 20.3989 128.745 18.6167C128.745 16.8345 129.184 15.4746 130.063 14.5371C130.947 13.5947 132.211 13.1235 133.857 13.1235C135.502 13.1235 136.76 13.5972 137.629 14.5444C138.503 15.4917 138.94 16.854 138.94 18.6313ZM131.125 18.6313C131.125 19.8276 131.352 20.7285 131.806 21.334C132.26 21.9395 132.939 22.2422 133.842 22.2422C135.654 22.2422 136.56 21.0386 136.56 18.6313C136.56 16.2192 135.659 15.0132 133.857 15.0132C132.954 15.0132 132.272 15.3184 131.813 15.9287C131.354 16.5342 131.125 17.4351 131.125 18.6313Z" fill="white"/>
<path d="M141.909 13.292H145.242C146.76 13.292 147.861 13.5093 148.545 13.9438C149.233 14.3735 149.578 15.0596 149.578 16.002C149.578 16.6416 149.426 17.1665 149.124 17.5767C148.826 17.9868 148.428 18.2334 147.93 18.3164V18.3896C148.608 18.541 149.097 18.8242 149.395 19.2393C149.697 19.6543 149.849 20.2061 149.849 20.8945C149.849 21.8711 149.495 22.6328 148.787 23.1797C148.083 23.7266 147.126 24 145.916 24H141.909V13.292ZM144.18 17.5327H145.498C146.113 17.5327 146.558 17.4375 146.831 17.2471C147.109 17.0566 147.249 16.7417 147.249 16.3022C147.249 15.8921 147.097 15.5991 146.794 15.4233C146.497 15.2427 146.023 15.1523 145.374 15.1523H144.18V17.5327ZM144.18 19.3345V22.125H145.659C146.284 22.125 146.746 22.0054 147.043 21.7661C147.341 21.5269 147.49 21.1606 147.49 20.6675C147.49 19.7788 146.855 19.3345 145.586 19.3345H144.18Z" fill="white"/>
<path d="M152.737 24V13.292H155.008V24H152.737Z" fill="white"/>
<path d="M167.953 24H165.067L160.409 15.8994H160.343C160.436 17.3301 160.482 18.3506 160.482 18.9609V24H158.453V13.292H161.317L165.968 21.312H166.019C165.946 19.9204 165.909 18.9365 165.909 18.3604V13.292H167.953V24Z" fill="white"/>
<path d="M180.29 18.5435C180.29 20.3062 179.787 21.6562 178.781 22.5938C177.78 23.5312 176.332 24 174.438 24H171.405V13.292H174.767C176.515 13.292 177.873 13.7534 178.839 14.6763C179.806 15.5991 180.29 16.8882 180.29 18.5435ZM177.931 18.6021C177.931 16.3022 176.916 15.1523 174.884 15.1523H173.676V22.125H174.65C176.837 22.125 177.931 20.9507 177.931 18.6021Z" fill="white"/>
<path d="M192.978 18.6313C192.978 20.4038 192.539 21.7661 191.66 22.7183C190.781 23.6704 189.521 24.1465 187.88 24.1465C186.24 24.1465 184.98 23.6704 184.101 22.7183C183.222 21.7661 182.783 20.3989 182.783 18.6167C182.783 16.8345 183.222 15.4746 184.101 14.5371C184.985 13.5947 186.25 13.1235 187.895 13.1235C189.541 13.1235 190.798 13.5972 191.667 14.5444C192.541 15.4917 192.978 16.854 192.978 18.6313ZM185.163 18.6313C185.163 19.8276 185.39 20.7285 185.844 21.334C186.298 21.9395 186.977 22.2422 187.88 22.2422C189.692 22.2422 190.598 21.0386 190.598 18.6313C190.598 16.2192 189.697 15.0132 187.895 15.0132C186.992 15.0132 186.311 15.3184 185.852 15.9287C185.393 16.5342 185.163 17.4351 185.163 18.6313Z" fill="white"/>
<path d="M207.149 24L206.373 21.4512H202.469L201.692 24H199.246L203.025 13.248H205.801L209.595 24H207.149ZM205.831 19.5469C205.113 17.2373 204.708 15.9312 204.615 15.6284C204.527 15.3257 204.463 15.0864 204.424 14.9106C204.263 15.5356 203.802 17.0811 203.04 19.5469H205.831Z" fill="white"/>
<path d="M218.021 21.0264C218.021 21.9932 217.672 22.7549 216.974 23.3115C216.28 23.8682 215.313 24.1465 214.073 24.1465C212.931 24.1465 211.92 23.9316 211.041 23.502V21.3926C211.764 21.7148 212.374 21.9419 212.872 22.0737C213.375 22.2056 213.834 22.2715 214.249 22.2715C214.747 22.2715 215.128 22.1763 215.392 21.9858C215.66 21.7954 215.794 21.5122 215.794 21.1362C215.794 20.9263 215.736 20.7407 215.619 20.5796C215.501 20.4136 215.328 20.2549 215.099 20.1035C214.874 19.9521 214.413 19.7104 213.714 19.3784C213.06 19.0708 212.569 18.7754 212.242 18.4922C211.915 18.209 211.654 17.8794 211.458 17.5034C211.263 17.1274 211.166 16.688 211.166 16.1851C211.166 15.2378 211.485 14.4932 212.125 13.9512C212.77 13.4092 213.658 13.1382 214.791 13.1382C215.348 13.1382 215.877 13.2041 216.38 13.3359C216.888 13.4678 217.418 13.6533 217.97 13.8926L217.237 15.6577C216.666 15.4233 216.192 15.2598 215.816 15.167C215.445 15.0742 215.079 15.0278 214.718 15.0278C214.288 15.0278 213.958 15.1279 213.729 15.3281C213.5 15.5283 213.385 15.7896 213.385 16.1118C213.385 16.312 213.431 16.4878 213.524 16.6392C213.617 16.7856 213.763 16.9297 213.963 17.0713C214.168 17.208 214.649 17.457 215.406 17.8184C216.407 18.2969 217.093 18.7778 217.464 19.2612C217.835 19.7397 218.021 20.3281 218.021 21.0264Z" fill="white"/>
<path d="M229.486 24H227.223V19.3784H222.982V24H220.712V13.292H222.982V17.4888H227.223V13.292H229.486V24Z" fill="white"/>
<path d="M235.217 18.0454H235.949C236.667 18.0454 237.197 17.9258 237.539 17.6865C237.88 17.4473 238.051 17.0713 238.051 16.5586C238.051 16.0508 237.875 15.6895 237.524 15.4746C237.177 15.2598 236.638 15.1523 235.905 15.1523H235.217V18.0454ZM235.217 19.8911V24H232.946V13.292H236.066C237.521 13.292 238.598 13.5581 239.296 14.0903C239.995 14.6177 240.344 15.4209 240.344 16.5C240.344 17.1299 240.17 17.6914 239.824 18.1846C239.477 18.6729 238.986 19.0562 238.352 19.3345C239.963 21.7417 241.013 23.2969 241.501 24H238.981L236.425 19.8911H235.217Z" fill="white"/>
<path d="M250.154 24L249.377 21.4512H245.474L244.697 24H242.251L246.03 13.248H248.806L252.6 24H250.154ZM248.835 19.5469C248.118 17.2373 247.712 15.9312 247.62 15.6284C247.532 15.3257 247.468 15.0864 247.429 14.9106C247.268 15.5356 246.807 17.0811 246.045 19.5469H248.835Z" fill="white"/>
<path d="M259.239 24L256.661 15.5991H256.595C256.688 17.3081 256.734 18.4482 256.734 19.0195V24H254.705V13.292H257.796L260.33 21.4805H260.374L263.062 13.292H266.153V24H264.036V18.9316C264.036 18.6924 264.039 18.4165 264.043 18.104C264.053 17.7915 264.087 16.9614 264.146 15.6138H264.08L261.319 24H259.239Z" fill="white"/>
<path d="M74.2319 38.5435C74.2319 40.3062 73.729 41.6562 72.7231 42.5938C71.7222 43.5312 70.2744 44 68.3799 44H65.3477V33.292H68.7095C70.4575 33.292 71.8149 33.7534 72.7817 34.6763C73.7485 35.5991 74.2319 36.8882 74.2319 38.5435ZM71.8735 38.6021C71.8735 36.3022 70.8579 35.1523 68.8267 35.1523H67.6182V42.125H68.5923C70.7798 42.125 71.8735 40.9507 71.8735 38.6021Z" fill="white"/>
<path d="M83.3682 44H77.2012V33.292H83.3682V35.1523H79.4717V37.5034H83.0972V39.3638H79.4717V42.125H83.3682V44Z" fill="white"/>
<path d="M86.3594 44V33.292H88.6299V42.125H92.9731V44H86.3594Z" fill="white"/>
<path d="M104.365 44H102.102V39.3784H97.8613V44H95.5908V33.292H97.8613V37.4888H102.102V33.292H104.365V44Z" fill="white"/>
<path d="M107.825 44V33.292H110.096V44H107.825Z" fill="white"/>
<path d="M118.188 33.292H121.52C123.039 33.292 124.14 33.5093 124.823 33.9438C125.512 34.3735 125.856 35.0596 125.856 36.002C125.856 36.6416 125.705 37.1665 125.402 37.5767C125.104 37.9868 124.706 38.2334 124.208 38.3164V38.3896C124.887 38.541 125.375 38.8242 125.673 39.2393C125.976 39.6543 126.127 40.2061 126.127 40.8945C126.127 41.8711 125.773 42.6328 125.065 43.1797C124.362 43.7266 123.405 44 122.194 44H118.188V33.292ZM120.458 37.5327H121.776C122.392 37.5327 122.836 37.4375 123.109 37.2471C123.388 37.0566 123.527 36.7417 123.527 36.3022C123.527 35.8921 123.375 35.5991 123.073 35.4233C122.775 35.2427 122.301 35.1523 121.652 35.1523H120.458V37.5327ZM120.458 39.3345V42.125H121.938C122.562 42.125 123.024 42.0054 123.322 41.7661C123.62 41.5269 123.769 41.1606 123.769 40.6675C123.769 39.7788 123.134 39.3345 121.864 39.3345H120.458Z" fill="white"/>
<path d="M131.286 38.0454H132.019C132.736 38.0454 133.266 37.9258 133.608 37.6865C133.95 37.4473 134.121 37.0713 134.121 36.5586C134.121 36.0508 133.945 35.6895 133.593 35.4746C133.247 35.2598 132.707 35.1523 131.975 35.1523H131.286V38.0454ZM131.286 39.8911V44H129.016V33.292H132.136C133.591 33.292 134.667 33.5581 135.366 34.0903C136.064 34.6177 136.413 35.4209 136.413 36.5C136.413 37.1299 136.24 37.6914 135.893 38.1846C135.546 38.6729 135.056 39.0562 134.421 39.3345C136.032 41.7417 137.082 43.2969 137.57 44H135.051L132.495 39.8911H131.286Z" fill="white"/>
<path d="M146.223 44L145.447 41.4512H141.543L140.767 44H138.32L142.1 33.248H144.875L148.669 44H146.223ZM144.905 39.5469C144.187 37.2373 143.782 35.9312 143.689 35.6284C143.601 35.3257 143.538 35.0864 143.499 34.9106C143.337 35.5356 142.876 37.0811 142.114 39.5469H144.905Z" fill="white"/>
<path d="M160.274 44H157.388L152.73 35.8994H152.664C152.757 37.3301 152.803 38.3506 152.803 38.9609V44H150.774V33.292H153.638L158.289 41.312H158.34C158.267 39.9204 158.23 38.9365 158.23 38.3604V33.292H160.274V44Z" fill="white"/>
<path d="M168.275 35.0278C167.42 35.0278 166.759 35.3501 166.29 35.9946C165.821 36.6343 165.587 37.5278 165.587 38.6753C165.587 41.063 166.483 42.2568 168.275 42.2568C169.027 42.2568 169.938 42.0688 171.007 41.6929V43.5972C170.128 43.9634 169.146 44.1465 168.062 44.1465C166.505 44.1465 165.313 43.6753 164.488 42.7329C163.663 41.7856 163.25 40.4282 163.25 38.6606C163.25 37.5474 163.453 36.5732 163.858 35.7383C164.264 34.8984 164.845 34.2563 165.602 33.812C166.363 33.3628 167.254 33.1382 168.275 33.1382C169.315 33.1382 170.36 33.3896 171.41 33.8926L170.677 35.7383C170.277 35.5479 169.874 35.3818 169.469 35.2402C169.063 35.0986 168.666 35.0278 168.275 35.0278Z" fill="white"/>
<path d="M182.816 44H180.553V39.3784H176.312V44H174.042V33.292H176.312V37.4888H180.553V33.292H182.816V44Z" fill="white"/>
<path d="M195.054 44H192.783V35.1816H189.875V33.292H197.961V35.1816H195.054V44Z" fill="white"/>
<path d="M202.63 38.0454H203.362C204.08 38.0454 204.61 37.9258 204.952 37.6865C205.293 37.4473 205.464 37.0713 205.464 36.5586C205.464 36.0508 205.289 35.6895 204.937 35.4746C204.59 35.2598 204.051 35.1523 203.318 35.1523H202.63V38.0454ZM202.63 39.8911V44H200.359V33.292H203.479C204.935 33.292 206.011 33.5581 206.709 34.0903C207.408 34.6177 207.757 35.4209 207.757 36.5C207.757 37.1299 207.583 37.6914 207.237 38.1846C206.89 38.6729 206.399 39.0562 205.765 39.3345C207.376 41.7417 208.426 43.2969 208.914 44H206.395L203.838 39.8911H202.63Z" fill="white"/>
<path d="M219.728 33.292V40.2207C219.728 41.0117 219.549 41.7051 219.193 42.3008C218.841 42.8965 218.331 43.353 217.662 43.6704C216.993 43.9878 216.202 44.1465 215.289 44.1465C213.912 44.1465 212.843 43.7949 212.081 43.0918C211.319 42.3838 210.938 41.417 210.938 40.1914V33.292H213.202V39.8472C213.202 40.6724 213.368 41.2778 213.7 41.6636C214.032 42.0493 214.581 42.2422 215.348 42.2422C216.09 42.2422 216.627 42.0493 216.959 41.6636C217.296 41.2729 217.464 40.6626 217.464 39.8325V33.292H219.728Z" fill="white"/>
<path d="M229.42 41.0264C229.42 41.9932 229.071 42.7549 228.373 43.3115C227.68 43.8682 226.713 44.1465 225.473 44.1465C224.33 44.1465 223.319 43.9316 222.44 43.502V41.3926C223.163 41.7148 223.773 41.9419 224.271 42.0737C224.774 42.2056 225.233 42.2715 225.648 42.2715C226.146 42.2715 226.527 42.1763 226.791 41.9858C227.06 41.7954 227.194 41.5122 227.194 41.1362C227.194 40.9263 227.135 40.7407 227.018 40.5796C226.901 40.4136 226.728 40.2549 226.498 40.1035C226.273 39.9521 225.812 39.7104 225.114 39.3784C224.459 39.0708 223.969 38.7754 223.642 38.4922C223.314 38.209 223.053 37.8794 222.858 37.5034C222.663 37.1274 222.565 36.688 222.565 36.1851C222.565 35.2378 222.885 34.4932 223.524 33.9512C224.169 33.4092 225.058 33.1382 226.19 33.1382C226.747 33.1382 227.277 33.2041 227.78 33.3359C228.288 33.4678 228.817 33.6533 229.369 33.8926L228.637 35.6577C228.065 35.4233 227.592 35.2598 227.216 35.167C226.845 35.0742 226.479 35.0278 226.117 35.0278C225.688 35.0278 225.358 35.1279 225.128 35.3281C224.899 35.5283 224.784 35.7896 224.784 36.1118C224.784 36.312 224.831 36.4878 224.923 36.6392C225.016 36.7856 225.163 36.9297 225.363 37.0713C225.568 37.208 226.049 37.457 226.806 37.8184C227.807 38.2969 228.493 38.7778 228.864 39.2612C229.235 39.7397 229.42 40.3281 229.42 41.0264Z" fill="white"/>
<path d="M236.242 44H233.972V35.1816H231.064V33.292H239.15V35.1816H236.242V44Z" fill="white"/>
</svg>
